<svg width="40" height="40" viewBox="0 0 40 40" fill="none" xmlns="http://www.w3.org/2000/svg">
<path fill-rule="evenodd" clip-rule="evenodd" d="M26.3415 3H28.8C30.8097 3 32.1365 3.00233 33.1533 3.08541C34.135 3.16562 34.5607 3.3059 34.816 3.43597C35.5686 3.81947 36.1805 4.43139 36.564 5.18404C36.6941 5.43933 36.8344 5.86497 36.9146 6.84671C36.9977 7.86347 37 9.19031 37 11.2V13.6585H40V11.2C40 7.27963 40 5.31945 39.237 3.82207C38.5659 2.50493 37.4951 1.43407 36.1779 0.762954C34.6805 0 32.7204 0 28.8 0H26.3415V3ZM13.6585 3V0H11.2C7.27963 0 5.31945 0 3.82207 0.762954C2.50493 1.43407 1.43407 2.50493 0.762954 3.82207C0 5.31945 0 7.27963 0 11.2V13.6585H3V11.2C3 9.19031 3.00233 7.86347 3.08541 6.84671C3.16562 5.86497 3.3059 5.43933 3.43597 5.18404C3.81947 4.43139 4.43139 3.81947 5.18404 3.43597C5.43933 3.3059 5.86497 3.16562 6.84671 3.08541C7.86347 3.00233 9.19031 3 11.2 3H13.6585ZM3 26.3415H0V28.8C0 32.7204 0 34.6805 0.762954 36.1779C1.43407 37.4951 2.50493 38.5659 3.82207 39.237C5.31945 40 7.27963 40 11.2 40H13.6585V37H11.2C9.19031 37 7.86347 36.9977 6.84671 36.9146C5.86497 36.8344 5.43933 36.6941 5.18404 36.564C4.43139 36.1805 3.81947 35.5686 3.43597 34.816C3.3059 34.5607 3.16562 34.135 3.08541 33.1533C3.00233 32.1365 3 30.8097 3 28.8V26.3415ZM26.3415 37V40H28.8C32.7204 40 34.6805 40 36.1779 39.237C37.4951 38.5659 38.5659 37.4951 39.237 36.1779C40 34.6805 40 32.7204 40 28.8V26.3415H37V28.8C37 30.8097 36.9977 32.1365 36.9146 33.1533C36.8344 34.135 36.6941 34.5607 36.564 34.816C36.1805 35.5686 35.5686 36.1805 34.816 36.564C34.5607 36.6941 34.135 36.8344 33.1533 36.9146C32.1365 36.9977 30.8097 37 28.8 37H26.3415ZM26.6019 28.2935C25.8144 27.2434 24.7931 26.391 23.619 25.804C22.445 25.217 21.1504 24.9114 19.8377 24.9114C18.5251 24.9114 17.2305 25.217 16.0564 25.804C14.8823 26.391 13.8611 27.2434 13.0735 28.2935L10.9922 26.7325C15.415 20.8346 24.2605 20.8346 28.6832 26.7325L26.6019 28.2935ZM11 14.6016H13.6016V12H11V14.6016ZM26.6098 14.6016H29.2114V12H26.6098V14.6016Z" fill="#E47B7B"/>
</svg>
